<?xml version="1.0" encoding="UTF-8"?>
<svg width="106px" height="93px" viewBox="0 0 106 93" version="1.1" xmlns="http://www.w3.org/2000/svg" xmlns:xlink="http://www.w3.org/1999/xlink">
    <!-- Generator: Sketch 59.1 (86144) - https://sketch.com -->
    <title>Group 4</title>
    <desc>Created with Sketch.</desc>
    <g id="Page-1" stroke="none" stroke-width="1" fill="none" fill-rule="evenodd">
        <g id="Landing" transform="translate(-106.000000, -33.000000)" fill="#FFFFFF">
            <g id="Group-4" transform="translate(106.000000, 33.000000)">
                <path d="M16.0583333,36.049918 C19.5833333,41.4796079 26.2416667,55.8295028 47,60.0956878 C25.4583333,63.9740378 10.9666667,55.0538328 0,39.5404329 C4.30833333,37.601258 10.1833333,35.662083 16.0583333,36.049918 Z M90.0743802,36.049918 C95.5123967,35.662083 101.727273,37.601258 106,39.5404329 C95.1239669,55.0538328 80.3636364,63.9740378 59,60.0956878 C79.5867769,55.8295028 86.5785124,41.4796079 90.0743802,36.049918 Z M53.6552433,0 C66.3800295,15.062069 71.0072245,43.2551724 53.6552433,56 C35.532063,42.8689655 40.9304572,15.062069 53.6552433,0 Z M14,16 C23.4444444,16.3786408 31.3777778,19.407767 38.5555556,25.0873786 C37.4222222,41.7475728 43.4666667,52.3495146 48,55 C31,54.2427184 18.1555556,39.0970874 14,16 Z M92,16 C88.2222222,39.0970874 75,54.2427184 58,55 C62.5333333,52.3495146 68.9555556,41.7475728 67.8222222,25.0873786 C74.6222222,19.407767 82.5555556,16.3786408 92,16 Z M30.9117647,5 C35.5,6.6 38.9411765,9.4 42,12.6 C42,12.6 39.3235294,22.6 39.7058824,23 C36.2647059,20.2 32.8235294,18.2 29,17 C29.3823529,13 29.3823529,8.6 30.9117647,5 Z M75.0882353,5 C76.6176471,8.6 77,13 77,17 C73.1764706,18.2 69.7352941,20.2 66.6764706,23 C66.6764706,22.6156863 64.2058032,13.3695502 64.0120254,12.6449541 L64,12.6 C67.0588235,9.4 70.8823529,6.6 75.0882353,5 Z" id="Combined-Shape-Copy"></path>
                <text id="REPOSE" font-family="Quicksand-Light_Bold, Quicksand" font-size="23" font-weight="bold" letter-spacing="0.638888889">
                    <tspan x="7" y="92">REPOSE</tspan>
                </text>
            </g>
        </g>
    </g>
</svg>